 <svg
    width="25"
    height="25"
    viewBox="0 0 25 25"
    fill="none"
    xmlns="http://www.w3.org/2000/svg"
    class="flex-grow-0 flex-shrink-0 w-6 h-6 relative"
    preserveAspectRatio="xMidYMid meet"
  >
    <mask
      id="mask0_3196_625"
      style="mask-type:alpha"
      maskUnits="userSpaceOnUse"
      x="3"
      y="2"
      width="19"
      height="21"
    >
      <path
        fill-rule="evenodd"
        clip-rule="evenodd"
        d="M18.3333 4.5H19.3333C20.4333 4.5 21.3333 5.4 21.3333 6.5V20.5C21.3333 21.6 20.4333 22.5 19.3333 22.5H5.33325C4.22325 22.5 3.33325 21.6 3.33325 20.5V6.5C3.33325 5.4 4.22325 4.5 5.33325 4.5H6.33325V3.5C6.33325 2.95 6.78325 2.5 7.33325 2.5C7.88325 2.5 8.33325 2.95 8.33325 3.5V4.5H16.3333V3.5C16.3333 2.95 16.7833 2.5 17.3333 2.5C17.8833 2.5 18.3333 2.95 18.3333 3.5V4.5ZM8.33325 11.5H16.3333C16.8833 11.5 17.3333 11.95 17.3333 12.5C17.3333 13.05 16.8833 13.5 16.3333 13.5H8.33325C7.78325 13.5 7.33325 13.05 7.33325 12.5C7.33325 11.95 7.78325 11.5 8.33325 11.5ZM18.3333 20.5H6.33325C5.78325 20.5 5.33325 20.05 5.33325 19.5V9.5H19.3333V19.5C19.3333 20.05 18.8833 20.5 18.3333 20.5ZM8.33325 15.5H13.3333C13.8833 15.5 14.3333 15.95 14.3333 16.5C14.3333 17.05 13.8833 17.5 13.3333 17.5H8.33325C7.78325 17.5 7.33325 17.05 7.33325 16.5C7.33325 15.95 7.78325 15.5 8.33325 15.5Z"
        fill="black"
      ></path>
    </mask>
    <g mask="url(#mask0_3196_625)">
      <rect x="0.333252" y="0.5" width="24" height="24" fill="url(#paint0_linear_3196_625)"></rect>
    </g>
    <defs>
      <linearGradient
        id="paint0_linear_3196_625"
        x1="24.3333"
        y1="24.5583"
        x2="0.333252"
        y2="0.558302"
        gradientUnits="userSpaceOnUse"
      >
        <stop stop-color="#2972FE"></stop>
        <stop offset="1" stop-color="#6499FF"></stop>
      </linearGradient>
    </defs>
  </svg>