<svg
    width="25"
    height="25"
    viewBox="0 0 25 25"
    fill="none"
    xmlns="http://www.w3.org/2000/svg"
    class="flex-grow-0 flex-shrink-0 w-6 h-6 relative"
    preserveAspectRatio="xMidYMid meet"
  >
    <mask
      id="mask0_3196_635"
      style="mask-type:alpha"
      maskUnits="userSpaceOnUse"
      x="3"
      y="5"
      width="19"
      height="15"
    >
      <path
        fill-rule="evenodd"
        clip-rule="evenodd"
        d="M3.41675 6.5C3.41675 5.67 4.08675 5 4.91675 5C5.74675 5 6.41675 5.67 6.41675 6.5C6.41675 7.33 5.74675 8 4.91675 8C4.08675 8 3.41675 7.33 3.41675 6.5ZM3.41675 12.5C3.41675 11.67 4.08675 11 4.91675 11C5.74675 11 6.41675 11.67 6.41675 12.5C6.41675 13.33 5.74675 14 4.91675 14C4.08675 14 3.41675 13.33 3.41675 12.5ZM4.91675 17C4.08675 17 3.41675 17.68 3.41675 18.5C3.41675 19.32 4.09675 20 4.91675 20C5.73675 20 6.41675 19.32 6.41675 18.5C6.41675 17.68 5.74675 17 4.91675 17ZM20.9167 19.5H8.91675C8.36675 19.5 7.91675 19.05 7.91675 18.5C7.91675 17.95 8.36675 17.5 8.91675 17.5H20.9167C21.4667 17.5 21.9167 17.95 21.9167 18.5C21.9167 19.05 21.4667 19.5 20.9167 19.5ZM8.91675 13.5H20.9167C21.4667 13.5 21.9167 13.05 21.9167 12.5C21.9167 11.95 21.4667 11.5 20.9167 11.5H8.91675C8.36675 11.5 7.91675 11.95 7.91675 12.5C7.91675 13.05 8.36675 13.5 8.91675 13.5ZM8.91675 7.5C8.36675 7.5 7.91675 7.05 7.91675 6.5C7.91675 5.95 8.36675 5.5 8.91675 5.5H20.9167C21.4667 5.5 21.9167 5.95 21.9167 6.5C21.9167 7.05 21.4667 7.5 20.9167 7.5H8.91675Z"
        fill="black"
      ></path>
    </mask>
    <g mask="url(#mask0_3196_635)">
      <rect x="0.666748" y="0.5" width="24" height="24" fill="url(#paint0_linear_3196_635)"></rect>
    </g>
    <defs>
      <linearGradient
        id="paint0_linear_3196_635"
        x1="24.6667"
        y1="24.5583"
        x2="0.666748"
        y2="0.558302"
        gradientUnits="userSpaceOnUse"
      >
        <stop stop-color="#2972FE"></stop>
        <stop offset="1" stop-color="#6499FF"></stop>
      </linearGradient>
    </defs>
  </svg>