<svg width="36" height="36" viewBox="0 0 36 36" fill="none"
    xmlns="http://www.w3.org/2000/svg" class="flex-grow-0 flex-shrink-0 w-9 h-9 relative" preserveAspectRatio="xMidYMid meet">
    <rect width="36" height="36" rx="12.96" fill="url(#paint0_linear_3188_394)"></rect>
    <path d="M16.8137 18.8116H15.9439C15.222 18.8116 14.6392 18.2289 14.6392 17.5069C14.6392 16.785 15.222 16.2022 15.9439 16.2022H16.8137V15.3324C16.8137 14.6104 17.3965 14.0277 18.1184 14.0277C18.8404 14.0277 19.4232 14.6104 19.4232 15.3324V16.2022H20.293C21.0149 16.2022 21.5977 16.785 21.5977 17.5069C21.5977 18.2289 21.0149 18.8116 20.293 18.8116H19.4232V19.6815C19.4232 20.4034 18.8404 20.9862 18.1184 20.9862C17.3965 20.9862 16.8137 20.4034 16.8137 19.6815V18.8116ZM17.5096 9.46982L12.2907 11.4269C11.6122 11.6879 11.1599 12.3315 11.1599 13.0622V17.1503C11.1599 21.5429 14.126 25.6397 18.1184 26.64C22.1109 25.6397 25.077 21.5429 25.077 17.1503V13.0622C25.0763 12.7082 24.9678 12.3628 24.7657 12.0722C24.5637 11.7816 24.2778 11.5595 23.9462 11.4356L18.7273 9.47852C18.3359 9.32195 17.901 9.32195 17.5096 9.46982Z" fill="white"></path>
    <defs>
        <linearGradient id="paint0_linear_3188_394" x1="36" y1="36.0875" x2="0" y2="0.0874529" gradientUnits="userSpaceOnUse">
            <stop stop-color="#2972FE"></stop>
            <stop offset="1" stop-color="#6499FF"></stop>
        </linearGradient>
    </defs>
</svg>