  <svg
    width="21"
    height="21"
    viewBox="0 0 21 21"
    fill="none"
    xmlns="http://www.w3.org/2000/svg"
    class="flex-grow-0 flex-shrink-0 w-5 h-5 relative"
    preserveAspectRatio="none"
  >
    <mask
      id="mask0_3202_5866"
      style="mask-type:alpha"
      maskUnits="userSpaceOnUse"
      x="2"
      y="2"
      width="18"
      height="17"
    >
      <path
        fill-rule="evenodd"
        clip-rule="evenodd"
        d="M4.33122 2.26576H17.6646C18.5812 2.26576 19.3312 3.01576 19.3312 3.93243V13.9324C19.3312 14.8491 18.5812 15.5991 17.6646 15.5991H5.99788L2.66455 18.9324L2.67288 3.93243C2.67288 3.01576 3.41455 2.26576 4.33122 2.26576ZM15.1646 8.0991H6.83122C6.37288 8.0991 5.99788 8.4741 5.99788 8.93243C5.99788 9.39076 6.37288 9.76576 6.83122 9.76576H15.1646C15.6229 9.76576 15.9979 9.39076 15.9979 8.93243C15.9979 8.4741 15.6229 8.0991 15.1646 8.0991ZM11.8312 12.2658H6.83122C6.37288 12.2658 5.99788 11.8908 5.99788 11.4324C5.99788 10.9741 6.37288 10.5991 6.83122 10.5991H11.8312C12.2896 10.5991 12.6646 10.9741 12.6646 11.4324C12.6646 11.8908 12.2896 12.2658 11.8312 12.2658ZM6.83122 7.26576H15.1646C15.6229 7.26576 15.9979 6.89076 15.9979 6.43243C15.9979 5.9741 15.6229 5.5991 15.1646 5.5991H6.83122C6.37288 5.5991 5.99788 5.9741 5.99788 6.43243C5.99788 6.89076 6.37288 7.26576 6.83122 7.26576Z"
        fill="black"
      ></path>
    </mask>
    <g mask="url(#mask0_3202_5866)">
      <rect x="0.997925" y="0.599091" width="20" height="20" fill="white"></rect>
    </g>
  </svg>