  <svg
    width="21"
    height="21"
    viewBox="0 0 21 21"
    fill="none"
    xmlns="http://www.w3.org/2000/svg"
    class="flex-grow-0 flex-shrink-0 w-5 h-5 relative"
    preserveAspectRatio="none"
  >
    <mask
      id="mask0_3202_5845"
      style="mask-type:alpha"
      maskUnits="userSpaceOnUse"
      x="3"
      y="3"
      width="16"
      height="16"
    >
      <path
        d="M17.0161 13.3226L14.8995 13.0809C14.3911 13.0226 13.8911 13.1976 13.5328 13.5559L11.9995 15.0892C9.64112 13.8892 7.70779 11.9642 6.50779 9.59756L8.04946 8.05589C8.40779 7.69755 8.58279 7.19756 8.52446 6.68922L8.28279 4.58922C8.18279 3.74755 7.47446 3.11422 6.62446 3.11422H5.18279C4.24112 3.11422 3.45779 3.89755 3.51612 4.83922C3.95779 11.9559 9.64946 17.6392 16.7578 18.0809C17.6995 18.1392 18.4828 17.3559 18.4828 16.4142V14.9726C18.4911 14.1309 17.8578 13.4226 17.0161 13.3226Z"
        fill="black"
      ></path>
    </mask>
    <g mask="url(#mask0_3202_5845)">
      <rect x="3.49792" y="3.09909" width="20" height="20" fill="white"></rect>
    </g>
  </svg>