<svg width="214" height="219" viewBox="0 0 214 219" fill="none" xmlns="http://www.w3.org/2000/svg">
<g clip-path="url(#clip0_3247_7009)">
<path d="M138.981 214.669L139.023 214.62L139.071 214.565L139.113 214.517L139.161 214.462L139.21 214.413L139.251 214.358L139.3 214.31L139.341 214.255L139.39 214.206L139.438 214.151L139.479 214.103L139.528 214.048L139.569 213.999L139.618 213.944L139.666 213.896L139.708 213.841L139.756 213.792L139.798 213.737L139.846 213.689L139.895 213.634L139.936 213.585L139.984 213.53L140.026 213.482L140.074 213.426L140.123 213.378L140.164 213.323L140.213 213.275L140.254 213.219L140.303 213.171L140.351 213.116L140.393 213.068L140.441 213.012L140.482 212.964L140.531 212.909L140.579 212.861L140.621 212.805L140.669 212.757L140.711 212.702L140.759 212.654L140.801 212.598L140.849 212.55L140.898 212.495L140.939 212.446L140.987 212.391L141.036 212.343L141.077 212.288C141.092 212.27 141.108 212.254 141.126 212.239L141.167 212.184L141.216 212.136L141.264 212.081L141.306 212.032L141.354 211.977L141.396 211.929L141.444 211.874L141.485 211.825L141.534 211.77L141.582 211.722L141.624 211.667L141.665 211.598L141.707 211.542C141.725 211.528 141.741 211.512 141.755 211.494L141.804 211.439L141.845 211.391L141.894 211.335L141.935 211.287L141.983 211.232C141.998 211.214 142.014 211.198 142.032 211.184L142.073 211.128L142.122 211.08L142.163 211.025L142.212 210.976L142.26 210.921L142.302 210.873L142.35 210.818L142.392 210.769L142.44 210.714L142.488 210.666L142.53 210.611L142.578 210.562L142.62 210.507C142.638 210.493 142.654 210.477 142.668 210.459L142.717 210.404L142.758 210.355L142.807 210.3L142.848 210.252L142.897 210.197C142.911 210.179 142.927 210.163 142.945 210.148L142.986 210.093L143.035 210.045L143.076 209.99L143.125 209.941L143.173 209.886L143.215 209.838L143.263 209.783L143.305 209.734L143.353 209.679L143.402 209.631L143.443 209.576L143.491 209.527L143.533 209.472C143.551 209.458 143.567 209.441 143.581 209.424L143.63 209.368L143.671 209.32L143.72 209.265L143.761 209.217L143.81 209.161C143.824 209.144 143.84 209.127 143.858 209.113L143.9 209.058L143.948 209.01L143.989 208.954L144.038 208.906L144.086 208.851L144.128 208.803L144.176 208.747L144.218 208.699L144.266 208.644L144.315 208.596L144.356 208.54L144.405 208.492L144.446 208.437C144.464 208.422 144.48 208.406 144.494 208.388L144.543 208.333L144.584 208.285L144.633 208.23L144.674 208.181L144.723 208.126L144.771 208.078L144.813 208.023L144.861 207.974L144.903 207.919C144.92 207.905 144.937 207.889 144.951 207.871L144.999 207.816L145.041 207.767L145.089 207.712L145.131 207.664L145.179 207.609C145.194 207.591 145.21 207.575 145.228 207.56L145.269 207.505L145.318 207.457L145.359 207.402L145.407 207.353L145.456 207.298L145.497 207.25L145.546 207.195L145.587 207.146L145.636 207.091L145.684 207.043L145.726 206.988L145.774 206.939L145.816 206.884C145.833 206.87 145.85 206.853 145.864 206.836L145.912 206.78L145.954 206.732L146.002 206.677L146.044 206.629L146.092 206.573C146.107 206.556 146.123 206.539 146.141 206.525L146.182 206.47L146.231 206.422L146.272 206.366L146.321 206.318L146.369 206.263L146.41 206.215L146.459 206.159L146.5 206.111L146.549 206.056L146.597 206.008L146.639 205.952L146.687 205.904L146.729 205.849C146.747 205.834 146.763 205.818 146.777 205.8L146.826 205.745L146.867 205.697L146.915 205.642L146.957 205.593L147.005 205.538C147.02 205.52 147.036 205.504 147.054 205.49L147.095 205.435L147.144 205.386H147.199L147.247 205.338L147.296 205.283L147.337 205.235L147.386 205.179L147.427 205.131L147.476 205.076L147.524 205.028L147.566 204.972L147.614 204.924L147.656 204.869C147.673 204.854 147.69 204.838 147.704 204.82L147.752 204.765L147.794 204.717L147.842 204.662L147.884 204.613L147.932 204.558C147.947 204.54 147.963 204.524 147.981 204.51L148.022 204.455C149.044 203.265 149.796 201.869 150.227 200.362C150.658 198.855 150.758 197.273 150.519 195.724L129.484 32.1624C128.613 25.406 122.415 19.9263 115.65 19.9263H37.908C36.3557 19.8966 34.8155 20.204 33.3941 20.8272C31.9728 21.4505 30.7043 22.3746 29.6766 23.5357L29.6281 23.5909L29.5866 23.6392L29.5382 23.6944C29.5239 23.7122 29.5076 23.7284 29.4898 23.7427L29.4483 23.7979L29.3999 23.8463L29.3584 23.9015C29.3405 23.9158 29.3243 23.932 29.3099 23.9498L29.2615 24.005L29.22 24.0533L29.1716 24.1085L29.1301 24.1568L29.0817 24.212C29.0673 24.2298 29.0511 24.246 29.0333 24.2603L28.9918 24.3155L28.9433 24.3639L28.9018 24.4191C28.884 24.4334 28.8678 24.4496 28.8534 24.4674L28.805 24.5226L28.7635 24.5709L28.7151 24.6261L28.6736 24.6744L28.6251 24.7296C28.6108 24.7474 28.5946 24.7636 28.5767 24.7779L28.5352 24.8331L28.4868 24.8815L28.4453 24.9367C28.4275 24.951 28.4112 24.9672 28.3969 24.985L28.3485 25.0402L28.307 25.0885L28.2585 25.1437L28.217 25.192L28.1686 25.2472C28.1543 25.265 28.138 25.2812 28.1202 25.2955L28.0787 25.3508L28.0303 25.3991L27.9888 25.4543C27.9709 25.4686 27.9547 25.4848 27.9403 25.5026L27.8919 25.5578L27.8504 25.6061L27.802 25.6613L27.7605 25.7096L27.7121 25.7648C27.6977 25.7826 27.6815 25.7988 27.6637 25.8131L27.6222 25.8684L27.5737 25.9167L27.5322 25.9512L27.4838 25.9995L27.4354 26.0547L27.3939 26.103L27.3455 26.1582L27.304 26.2065L27.2556 26.2617C27.2412 26.2795 27.225 26.2957 27.2071 26.31L27.1656 26.3653L27.1172 26.4136L27.0757 26.4688L27.0273 26.5171L26.9789 26.5723L26.9374 26.6206L26.8889 26.6758L26.8474 26.7241L26.799 26.7793L26.7506 26.8276L26.7091 26.8829L26.6607 26.9312L26.6192 26.9864C26.6013 27.0007 26.5851 27.0169 26.5707 27.0347L26.5223 27.0899L26.4808 27.1382L26.4324 27.1934L26.3909 27.2417L26.3425 27.2969L26.2941 27.3452L26.2526 27.4005L26.2041 27.4488L26.1626 27.504C26.1448 27.5183 26.1286 27.5345 26.1142 27.5523L26.0658 27.6075L26.0243 27.6558L25.9759 27.711L25.9344 27.7593L25.8859 27.8145C25.8716 27.8323 25.8554 27.8485 25.8375 27.8628L25.796 27.9181L25.7476 27.9664L25.7061 28.0216C25.6883 28.0359 25.672 28.0521 25.6577 28.0699L25.6093 28.1251L25.5678 28.1734L25.5193 28.2286L25.4778 28.2769L25.4294 28.3321C25.4151 28.3499 25.3988 28.3661 25.381 28.3804L25.3395 28.4357L25.2911 28.484L25.2496 28.5392C25.2317 28.5535 25.2155 28.5697 25.2012 28.5875L25.1527 28.6427L25.1112 28.691L25.0628 28.7462L25.0213 28.7945L24.9729 28.8497C24.9585 28.8675 24.9423 28.8837 24.9245 28.898L24.883 28.9533L24.8345 29.0016L24.793 29.0568C24.7752 29.0711 24.759 29.0873 24.7446 29.1051L24.7031 29.1603C24.6853 29.1746 24.669 29.1908 24.6547 29.2086L24.6063 29.2638L24.5648 29.3121L24.5164 29.3673C24.502 29.3851 24.4858 29.4013 24.4679 29.4156L24.4264 29.4709L24.378 29.5192L24.3365 29.5744C24.3187 29.5887 24.3024 29.6049 24.2881 29.6227L24.2397 29.6779L24.1982 29.7262L24.1497 29.7814L24.1082 29.8297L24.0598 29.8849C24.0455 29.9027 24.0292 29.9189 24.0114 29.9332L23.9699 29.9885L23.9215 30.0368L23.88 30.092L23.8315 30.1403L23.79 30.1955L23.7416 30.2438L23.6932 30.299L23.6517 30.3473L23.6033 30.4025L23.5618 30.4509L23.5134 30.5061C23.499 30.5239 23.4828 30.5401 23.4649 30.5544L23.4234 30.6096L23.375 30.6579L23.3335 30.7131C23.3157 30.7274 23.2995 30.7436 23.2851 30.7614L23.2367 30.8166L23.1952 30.8649L23.1468 30.9201L23.1053 30.9685L23.0568 31.0237C23.0425 31.0415 23.0263 31.0577 23.0084 31.072L22.9669 31.1272L22.9185 31.1755L22.877 31.2307C22.8592 31.245 22.8429 31.2612 22.8286 31.279L22.7801 31.3342L22.7386 31.3825L22.6902 31.4723L22.6418 31.5275C22.6274 31.5453 22.6112 31.5615 22.5934 31.5758L22.5519 31.631L22.5035 31.6793L22.462 31.7345C22.4441 31.7488 22.4279 31.765 22.4135 31.7828L22.3651 31.838L22.3236 31.8863L22.2752 31.9415L22.2337 31.9899L22.1853 32.0451C22.1709 32.0629 22.1547 32.0791 22.1368 32.0934L22.0953 32.1486L22.0469 32.1969L22.0054 32.2521C21.9876 32.2664 21.9714 32.2826 21.957 32.3004L21.9086 32.3556L21.8671 32.4039L21.8187 32.4591L21.7772 32.5075L21.7287 32.5627C21.7144 32.5805 21.6981 32.5967 21.6803 32.611L21.6388 32.6662L21.5904 32.7145L21.5489 32.7697C21.5311 32.784 21.5148 32.8002 21.5005 32.818L21.4521 32.8732L21.4105 32.9215L21.3621 32.9767L21.3206 33.0251L21.2722 33.0803C21.2579 33.0981 21.2416 33.1143 21.2238 33.1286L21.1823 33.1838L21.1339 33.2321L21.0924 33.2873C21.0745 33.3016 21.0583 33.3178 21.0439 33.3356L20.9955 33.3908L20.954 33.4391L20.9056 33.4944L20.8641 33.5427L20.8157 33.5979C20.8013 33.6157 20.7851 33.6319 20.7673 33.6462L20.7258 33.7014L20.6773 33.7497L20.6358 33.8049C19.6094 34.9889 18.8513 36.3799 18.4131 37.883C17.975 39.3862 17.8673 40.9659 18.0972 42.5144L39.1392 206.077C40.0108 212.833 46.2086 218.313 52.9735 218.313H130.702C132.254 218.342 133.794 218.034 135.215 217.411C136.636 216.788 137.905 215.864 138.933 214.703L138.981 214.669Z" fill="url(#paint0_linear_3247_7009)"/>
<path d="M136.56 91.4657C135.778 91.4386 135.029 91.1385 134.445 90.6178C133.862 90.097 133.479 89.3885 133.365 88.6155L131.373 73.115C131.315 72.7587 131.336 72.394 131.435 72.0469C131.534 71.6997 131.709 71.3787 131.947 71.1065C132.185 70.8344 132.48 70.6179 132.811 70.4724C133.142 70.3269 133.501 70.256 133.863 70.2648C134.65 70.2858 135.404 70.5832 135.992 71.1046C136.58 71.6261 136.965 72.338 137.079 73.115L139.078 88.6155C139.137 88.9741 139.115 89.3413 139.014 89.6905C138.913 90.0397 138.736 90.3622 138.495 90.6349C138.254 90.9075 137.956 91.1234 137.621 91.2671C137.287 91.4108 136.924 91.4786 136.56 91.4657Z" fill="url(#paint1_linear_3247_7009)"/>
<path d="M139.832 207.981H62.1181C55.3392 207.981 49.1484 202.502 48.2837 195.745L27.2279 32.1624C26.3564 25.4059 31.143 19.9263 37.9218 19.9263H115.643C122.415 19.9263 128.613 25.4059 129.477 32.1624L150.519 195.724C151.391 202.502 146.604 207.981 139.832 207.981Z" fill="url(#paint2_linear_3247_7009)"/>
<path d="M136.132 201.515H64.1171C61.8174 201.454 59.6129 200.586 57.8911 199.063C56.1693 197.541 55.0404 195.462 54.7028 193.192L34.318 34.6952C34.1464 33.654 34.2076 32.5878 34.497 31.5729C34.7864 30.558 35.297 29.6194 35.9922 28.8242C36.6874 28.029 37.5501 27.3969 38.5186 26.973C39.4872 26.5492 40.5376 26.344 41.5948 26.3722H113.637C115.936 26.4323 118.141 27.3 119.862 28.8226C121.582 30.3452 122.71 32.4248 123.044 34.6952L143.429 193.192C143.601 194.235 143.54 195.303 143.249 196.319C142.958 197.336 142.446 198.275 141.748 199.071C141.051 199.866 140.186 200.498 139.214 200.921C138.243 201.343 137.191 201.546 136.132 201.515Z" fill="url(#paint3_linear_3247_7009)"/>
<path d="M54.9726 26.3722L56.8956 29.8229C57.3816 30.6981 58.0887 31.4312 58.9466 31.9493C59.8046 32.4675 60.7834 32.7527 61.786 32.7766H89.6898C90.6106 32.8068 91.5157 32.5339 92.2657 32.0001C93.0157 31.4664 93.5689 30.7013 93.8401 29.8229L94.8846 26.3722H54.9726Z" fill="url(#paint4_linear_3247_7009)"/>
<path d="M139.832 207.981H62.1181C55.3392 207.981 49.1484 202.502 48.2837 195.745L27.2279 32.1624C26.3564 25.4059 31.143 19.9263 37.9218 19.9263H115.643C122.415 19.9263 128.613 25.4059 129.477 32.1624L150.519 195.724C151.391 202.502 146.604 207.981 139.832 207.981Z" fill="url(#paint5_linear_3247_7009)"/>
<path d="M136.132 201.515H64.1171C61.8174 201.454 59.6129 200.586 57.8911 199.063C56.1693 197.541 55.0404 195.462 54.7028 193.192L34.318 34.6952C34.1464 33.654 34.2076 32.5878 34.497 31.5729C34.7864 30.558 35.297 29.6194 35.9922 28.8242C36.6874 28.029 37.5501 27.3969 38.5186 26.973C39.4872 26.5492 40.5376 26.344 41.5948 26.3722H113.637C115.936 26.4323 118.141 27.3 119.862 28.8226C121.582 30.3452 122.71 32.4248 123.044 34.6952L143.429 193.192C143.601 194.235 143.54 195.303 143.249 196.319C142.958 197.336 142.446 198.275 141.748 199.071C141.051 199.866 140.186 200.498 139.214 200.921C138.243 201.343 137.191 201.546 136.132 201.515Z" fill="url(#paint6_linear_3247_7009)"/>
<mask id="mask0_3247_7009" style="mask-type:luminance" maskUnits="userSpaceOnUse" x="34" y="26" width="110" height="176">
<path d="M136.132 201.515H64.1171C61.8174 201.454 59.6129 200.586 57.8911 199.063C56.1693 197.541 55.0404 195.462 54.7028 193.192L34.318 34.6952C34.1464 33.654 34.2076 32.5878 34.497 31.5729C34.7864 30.558 35.297 29.6194 35.9922 28.8242C36.6874 28.029 37.5501 27.3969 38.5186 26.973C39.4872 26.5492 40.5376 26.344 41.5948 26.3722H113.637C115.936 26.4323 118.141 27.3 119.862 28.8226C121.582 30.3452 122.71 32.4248 123.044 34.6952L143.429 193.192C143.601 194.235 143.54 195.303 143.249 196.319C142.958 197.336 142.446 198.275 141.748 199.071C141.051 199.866 140.186 200.498 139.214 200.921C138.243 201.343 137.191 201.546 136.132 201.515Z" fill="white"/>
</mask>
<g mask="url(#mask0_3247_7009)">
<path d="M93.8817 80.8722H51.7839L45.2471 86.276L43.4418 72.1282C43.2731 71.0339 43.3463 69.916 43.6564 68.8529C43.9665 67.7898 44.5059 66.8073 45.2368 65.9742C45.9677 65.1411 46.8724 64.4776 47.8874 64.0301C48.9025 63.5827 50.0034 63.3623 51.1129 63.3842H91.6543C94.0728 63.4407 96.393 64.3498 98.2037 65.9504C100.014 67.551 101.198 69.7396 101.546 72.1282C101.722 73.2231 101.654 74.3432 101.347 75.409C101.041 76.4748 100.502 77.46 99.7705 78.2947C99.0389 79.1295 98.1319 79.7931 97.1142 80.2386C96.0964 80.6841 94.9927 80.9004 93.8817 80.8722Z" fill="url(#paint7_linear_3247_7009)"/>
<path d="M90.8935 52.9976H48.7956L42.2658 58.3876L40.4881 44.2467C40.312 43.1518 40.3798 42.0317 40.6866 40.9659C40.9935 39.9001 41.5318 38.9149 42.2635 38.0802C42.9951 37.2454 43.9021 36.5818 44.9198 36.1363C45.9376 35.6908 47.0413 35.4745 48.1523 35.5027H88.7007C91.114 35.5645 93.4274 36.4763 95.2315 38.0767C97.0356 39.6771 98.2138 41.8627 98.5577 44.2467C98.7349 45.3421 98.668 46.463 98.3617 47.5296C98.0553 48.5963 97.5172 49.5824 96.7854 50.418C96.0536 51.2535 95.1463 51.9178 94.1279 52.3637C93.1095 52.8096 92.0052 53.026 90.8935 52.9976Z" fill="url(#paint8_linear_3247_7009)"/>
<path d="M76.4781 108.416H118.576L126.448 113.812L124.67 99.6715C124.325 97.287 123.145 95.1012 121.34 93.5009C119.534 91.9006 117.22 90.9891 114.806 90.9275H74.2784C73.1674 90.8993 72.0637 91.1156 71.0459 91.5611C70.0282 92.0066 69.1212 92.6702 68.3896 93.505C67.6579 94.3397 67.1196 95.3249 66.8127 96.3907C66.5059 97.4565 66.4381 98.5766 66.6142 99.6715C66.9596 102.056 68.1392 104.242 69.9444 105.842C71.7497 107.442 74.064 108.354 76.4781 108.416Z" fill="url(#paint9_linear_3247_7009)"/>
<path d="M100.799 135.959H58.701L52.1712 141.356L50.3935 127.215C50.2174 126.12 50.2852 125 50.592 123.934C50.8989 122.868 51.4372 121.883 52.1689 121.048C52.9005 120.214 53.8074 119.55 54.8252 119.104C55.843 118.659 56.9467 118.443 58.0577 118.471H98.6061C101.019 118.533 103.333 119.444 105.137 121.045C106.941 122.645 108.119 124.831 108.463 127.215C108.639 128.31 108.571 129.43 108.265 130.496C107.958 131.561 107.419 132.547 106.688 133.381C105.956 134.216 105.049 134.88 104.031 135.325C103.014 135.771 101.91 135.987 100.799 135.959Z" fill="url(#paint10_linear_3247_7009)"/>
<path d="M83.3952 163.495H125.493L133.365 168.899L131.587 154.751C131.236 152.375 130.057 150.198 128.257 148.604C126.456 147.01 124.15 146.1 121.744 146.035H81.2025C80.0915 146.007 78.9878 146.223 77.97 146.668C76.9522 147.114 76.0453 147.778 75.3136 148.612C74.582 149.447 74.0436 150.432 73.7368 151.498C73.43 152.564 73.3622 153.684 73.5383 154.779C73.8881 157.158 75.0689 159.337 76.8724 160.932C78.6759 162.527 80.9861 163.434 83.3952 163.495Z" fill="url(#paint11_linear_3247_7009)"/>
<path d="M63.3839 175.317H127.174C128.875 175.362 130.506 176.004 131.778 177.132C133.05 178.26 133.882 179.8 134.126 181.48C134.25 182.252 134.202 183.041 133.986 183.793C133.77 184.544 133.39 185.238 132.874 185.827C132.359 186.415 131.719 186.883 131.002 187.197C130.284 187.511 129.507 187.663 128.723 187.643H64.9264C63.2241 187.6 61.5918 186.958 60.3183 185.83C59.0447 184.703 58.2122 183.162 57.9678 181.48C57.8446 180.707 57.8935 179.917 58.111 179.165C58.3285 178.414 58.7093 177.719 59.2264 177.131C59.7434 176.542 60.3839 176.075 61.1025 175.761C61.8211 175.448 62.6 175.296 63.3839 175.317Z" fill="#DAF1F1" stroke="url(#paint12_linear_3247_7009)" stroke-miterlimit="10"/>
<path d="M118.036 175.317H127.174C128.875 175.362 130.506 176.004 131.778 177.132C133.05 178.26 133.882 179.8 134.126 181.48C134.25 182.252 134.202 183.041 133.986 183.793C133.77 184.544 133.39 185.238 132.874 185.827C132.359 186.415 131.719 186.883 131.002 187.197C130.285 187.511 129.507 187.663 128.723 187.643H119.586L118.036 175.317Z" fill="url(#paint13_linear_3247_7009)"/>
<path d="M47.0317 41.6518L93.1 41.6035" stroke="#00BDB7" stroke-width="2" stroke-linecap="round" stroke-linejoin="round"/>
<path d="M47.8687 46.7795L93.937 46.7381" stroke="#00BDB7" stroke-width="2" stroke-linecap="round" stroke-linejoin="round"/>
<path d="M49.6326 69.2296L95.694 69.1882" stroke="#00BDB7" stroke-width="2" stroke-linecap="round" stroke-linejoin="round"/>
<path d="M50.4696 74.3642L96.5379 74.3159" stroke="#00BDB7" stroke-width="2" stroke-linecap="round" stroke-linejoin="round"/>
<path d="M57.1308 124.779L103.192 124.737" stroke="#00BDB7" stroke-width="2" stroke-linecap="round" stroke-linejoin="round"/>
<path d="M57.9678 129.913L104.029 129.865" stroke="#00BDB7" stroke-width="2" stroke-linecap="round" stroke-linejoin="round"/>
<path d="M73.0541 96.6142L119.122 96.5728" stroke="#007AB7" stroke-width="2" stroke-linecap="round" stroke-linejoin="round"/>
<path d="M73.8911 101.749L119.959 101.701" stroke="#007AB7" stroke-width="2" stroke-linecap="round" stroke-linejoin="round"/>
<path d="M79.9713 151.804L126.04 151.756" stroke="#007AB7" stroke-width="2" stroke-linecap="round" stroke-linejoin="round"/>
<path d="M80.8151 156.932L126.876 156.891" stroke="#007AB7" stroke-width="2" stroke-linecap="round" stroke-linejoin="round"/>
<path d="M29.1786 37.5731L126.849 36.6897L122.74 22.4937L26.6331 23.3632L29.1786 37.5731Z" fill="url(#paint14_linear_3247_7009)"/>
</g>
<path d="M54.9726 26.3722L56.8956 29.8229C57.3816 30.6981 58.0887 31.4312 58.9466 31.9493C59.8046 32.4675 60.7834 32.7527 61.786 32.7766H89.6898C90.6106 32.8068 91.5157 32.5339 92.2657 32.0001C93.0157 31.4664 93.5689 30.7013 93.8401 29.8229L94.8846 26.3722H54.9726Z" fill="url(#paint15_linear_3247_7009)"/>
<path d="M113.637 26.3722H109.95C112.249 26.4323 114.454 27.3 116.175 28.8226C117.896 30.3452 119.023 32.4248 119.357 34.6952L139.742 193.192C139.914 194.232 139.853 195.298 139.564 196.312C139.275 197.327 138.765 198.265 138.07 199.06C137.376 199.855 136.514 200.487 135.546 200.912C134.579 201.336 133.529 201.542 132.472 201.515H136.132C137.188 201.542 138.238 201.336 139.206 200.912C140.173 200.487 141.035 199.855 141.729 199.06C142.424 198.265 142.934 197.327 143.223 196.312C143.512 195.298 143.573 194.232 143.402 193.192L123.044 34.6952C122.71 32.4248 121.582 30.3452 119.861 28.8226C118.141 27.3 115.936 26.4323 113.637 26.3722Z" fill="url(#paint16_linear_3247_7009)"/>
<path style="mix-blend-mode:overlay" d="M136.132 201.515H64.1171C61.8174 201.454 59.6129 200.586 57.8911 199.063C56.1693 197.541 55.0404 195.462 54.7028 193.192L34.318 34.6952C34.1464 33.654 34.2076 32.5878 34.497 31.5729C34.7864 30.558 35.297 29.6194 35.9922 28.8242C36.6874 28.029 37.5501 27.3969 38.5186 26.973C39.4872 26.5492 40.5376 26.344 41.5948 26.3722H113.637C115.936 26.4323 118.141 27.3 119.862 28.8226C121.582 30.3452 122.71 32.4248 123.044 34.6952L143.429 193.192C143.601 194.235 143.54 195.303 143.249 196.319C142.958 197.336 142.446 198.275 141.748 199.071C141.051 199.866 140.186 200.498 139.214 200.921C138.243 201.343 137.191 201.546 136.132 201.515Z" fill="url(#paint17_linear_3247_7009)"/>
<path d="M92.4567 32.749H64.5529C63.5503 32.7251 62.5714 32.4399 61.7135 31.9217C60.8556 31.4035 60.1485 30.6704 59.6624 29.7952L54.1287 19.9953H99.5537L96.5586 29.7952C96.2896 30.6655 95.7437 31.4246 95.0035 31.9576C94.2634 32.4906 93.3693 32.7684 92.4567 32.749Z" fill="url(#paint18_linear_3247_7009)"/>
<path d="M85.4081 28.6703H65.127C64.8108 28.6557 64.5092 28.5332 64.2725 28.3235C64.0358 28.1137 63.8784 27.8294 63.8265 27.5178C63.8043 27.3746 63.8138 27.2282 63.8542 27.0891C63.8947 26.9499 63.9651 26.8212 64.0607 26.712C64.1563 26.6029 64.2746 26.5159 64.4074 26.4572C64.5402 26.3985 64.6843 26.3695 64.8295 26.3722H85.1175C85.4339 26.3803 85.7373 26.4997 85.974 26.7093C86.2107 26.919 86.3655 27.2053 86.411 27.5178C86.4357 27.6617 86.428 27.8093 86.3885 27.9499C86.3491 28.0905 86.2788 28.2206 86.1829 28.3309C86.087 28.4411 85.9677 28.5287 85.8337 28.5874C85.6997 28.6461 85.5543 28.6745 85.4081 28.6703Z" fill="url(#paint19_linear_3247_7009)"/>
<path d="M91.4645 28.6939C92.042 28.0795 91.9432 27.0509 91.2437 26.3965C90.5443 25.742 89.5091 25.7096 88.9316 26.3241C88.354 26.9385 88.4529 27.9671 89.1523 28.6216C89.8518 29.276 90.887 29.3084 91.4645 28.6939Z" fill="url(#paint20_linear_3247_7009)"/>
<path d="M113.637 26.3722H109.95C112.249 26.4323 114.454 27.3 116.175 28.8226C117.896 30.3452 119.023 32.4248 119.357 34.6952L139.742 193.192C139.914 194.232 139.853 195.298 139.564 196.312C139.275 197.327 138.765 198.265 138.07 199.06C137.376 199.855 136.514 200.487 135.546 200.912C134.579 201.336 133.529 201.542 132.472 201.515H136.132C137.188 201.542 138.238 201.336 139.206 200.912C140.173 200.487 141.035 199.855 141.729 199.06C142.424 198.265 142.934 197.327 143.223 196.312C143.512 195.298 143.573 194.232 143.402 193.192L123.044 34.6952C122.71 32.4248 121.582 30.3452 119.861 28.8226C118.141 27.3 115.936 26.4323 113.637 26.3722Z" fill="url(#paint21_linear_3247_7009)"/>
<path style="mix-blend-mode:overlay" d="M136.132 201.515H64.1171C61.8174 201.454 59.6129 200.586 57.8911 199.063C56.1693 197.541 55.0404 195.462 54.7028 193.192L34.318 34.6952C34.1464 33.654 34.2076 32.5878 34.497 31.5729C34.7864 30.558 35.297 29.6194 35.9922 28.8242C36.6874 28.029 37.5501 27.3969 38.5186 26.973C39.4872 26.5492 40.5376 26.344 41.5948 26.3722H113.637C115.936 26.4323 118.141 27.3 119.862 28.8226C121.582 30.3452 122.71 32.4248 123.044 34.6952L143.429 193.192C143.601 194.235 143.54 195.303 143.249 196.319C142.958 197.336 142.446 198.275 141.748 199.071C141.051 199.866 140.186 200.498 139.214 200.921C138.243 201.343 137.191 201.546 136.132 201.515Z" fill="url(#paint22_linear_3247_7009)"/>
<path style="mix-blend-mode:overlay" d="M136.132 201.515H64.1171C61.8174 201.454 59.6129 200.586 57.8911 199.063C56.1693 197.541 55.0404 195.462 54.7028 193.192L34.318 34.6952C34.1464 33.654 34.2076 32.5878 34.497 31.5729C34.7864 30.558 35.297 29.6194 35.9922 28.8242C36.6874 28.029 37.5501 27.3969 38.5186 26.973C39.4872 26.5492 40.5376 26.344 41.5948 26.3722H113.637C115.936 26.4323 118.141 27.3 119.862 28.8226C121.582 30.3452 122.71 32.4248 123.044 34.6952L143.429 193.192C143.601 194.235 143.54 195.303 143.249 196.319C142.958 197.336 142.446 198.275 141.748 199.071C141.051 199.866 140.186 200.498 139.214 200.921C138.243 201.343 137.191 201.546 136.132 201.515Z" fill="url(#paint23_linear_3247_7009)"/>
<path d="M92.4567 32.749H64.5529C63.5503 32.7251 62.5714 32.4399 61.7135 31.9217C60.8556 31.4035 60.1485 30.6704 59.6624 29.7952L54.1287 19.9953H99.5537L96.5586 29.7952C96.2896 30.6655 95.7437 31.4246 95.0035 31.9576C94.2634 32.4906 93.3693 32.7684 92.4567 32.749Z" fill="url(#paint24_linear_3247_7009)"/>
<path d="M85.4081 28.6703H65.127C64.8108 28.6557 64.5092 28.5332 64.2725 28.3235C64.0358 28.1137 63.8784 27.8294 63.8265 27.5178C63.8043 27.3746 63.8138 27.2282 63.8542 27.0891C63.8947 26.9499 63.9651 26.8212 64.0607 26.712C64.1563 26.6029 64.2746 26.5159 64.4074 26.4572C64.5402 26.3985 64.6843 26.3695 64.8295 26.3722H85.1175C85.4339 26.3803 85.7373 26.4997 85.974 26.7093C86.2107 26.919 86.3655 27.2053 86.411 27.5178C86.4357 27.6617 86.428 27.8093 86.3885 27.9499C86.3491 28.0905 86.2788 28.2206 86.1829 28.3309C86.087 28.4411 85.9677 28.5287 85.8337 28.5874C85.6997 28.6461 85.5543 28.6745 85.4081 28.6703Z" fill="url(#paint25_linear_3247_7009)"/>
<path d="M91.4645 28.6939C92.042 28.0795 91.9432 27.0509 91.2437 26.3965C90.5443 25.742 89.5091 25.7096 88.9316 26.3241C88.354 26.9385 88.4529 27.9671 89.1523 28.6216C89.8518 29.276 90.887 29.3084 91.4645 28.6939Z" fill="url(#paint26_linear_3247_7009)"/>
<path d="M33.4464 116.297H31.3713C30.5838 116.276 29.8288 115.979 29.2392 115.458C28.6496 114.936 28.2632 114.224 28.1479 113.447L26.4186 100.003C26.3606 99.6464 26.3819 99.2817 26.4812 98.9346C26.5805 98.5874 26.7552 98.2664 26.9929 97.9942C27.2307 97.7221 27.5256 97.5056 27.8567 97.3601C28.1879 97.2146 28.5471 97.1437 28.9088 97.1525H30.9839C31.7711 97.1746 32.5253 97.4722 33.1146 97.9933C33.7039 98.5144 34.0907 99.2257 34.2073 100.003L35.9366 113.447C35.9946 113.803 35.9733 114.168 35.874 114.515C35.7747 114.862 35.6 115.183 35.3623 115.455C35.1245 115.727 34.8296 115.944 34.4985 116.089C34.1673 116.235 33.8082 116.306 33.4464 116.297Z" fill="url(#paint27_linear_3247_7009)"/>
<path d="M31.3713 116.297C30.5838 116.276 29.8288 115.979 29.2392 115.458C28.6496 114.936 28.2632 114.224 28.1479 113.447L26.4186 100.003C26.3606 99.6464 26.3819 99.2817 26.4812 98.9346C26.5805 98.5874 26.7552 98.2664 26.9929 97.9942C27.2307 97.7221 27.5256 97.5056 27.8567 97.3601C28.1879 97.2146 28.5471 97.1437 28.9088 97.1525C29.6959 97.1746 30.4502 97.4722 31.0395 97.9933C31.6288 98.5144 32.0156 99.2257 32.1322 100.003L33.8615 113.447C33.9195 113.803 33.8981 114.168 33.7989 114.515C33.6996 114.862 33.5249 115.183 33.2871 115.455C33.0494 115.727 32.7545 115.944 32.4233 116.089C32.0922 116.235 31.733 116.306 31.3713 116.297Z" fill="url(#paint28_linear_3247_7009)"/>
<path d="M29.9878 89.4437H27.9127C27.1251 89.4229 26.3702 89.1257 25.7806 88.6044C25.191 88.083 24.8046 87.371 24.6893 86.5934L22.96 73.1496C22.902 72.7932 22.9233 72.4286 23.0226 72.0814C23.1219 71.7343 23.2966 71.4132 23.5343 71.1411C23.7721 70.869 24.067 70.6525 24.3981 70.507C24.7293 70.3615 25.0885 70.2906 25.4502 70.2993H27.5253C28.3124 70.3214 29.0667 70.6191 29.656 71.1402C30.2453 71.6613 30.6321 72.3726 30.7487 73.1496L32.478 86.5934C32.536 86.9497 32.5147 87.3144 32.4154 87.6616C32.3161 88.0087 32.1414 88.3298 31.9037 88.6019C31.6659 88.874 31.371 89.0905 31.0399 89.236C30.7087 89.3815 30.3495 89.4524 29.9878 89.4437Z" fill="url(#paint29_linear_3247_7009)"/>
<path d="M27.9127 89.4437C27.1251 89.4229 26.3702 89.1257 25.7806 88.6044C25.191 88.083 24.8046 87.371 24.6893 86.5934L22.96 73.1496C22.902 72.7932 22.9233 72.4286 23.0226 72.0814C23.1219 71.7343 23.2966 71.4132 23.5343 71.1411C23.7721 70.869 24.067 70.6525 24.3981 70.507C24.7293 70.3615 25.0885 70.2906 25.4502 70.2993C26.2373 70.3214 26.9915 70.6191 27.5809 71.1402C28.1702 71.6613 28.557 72.3726 28.6736 73.1496L30.4028 86.5934C30.4609 86.9497 30.4395 87.3144 30.3402 87.6616C30.241 88.0087 30.0663 88.3298 29.8285 88.6019C29.5908 88.874 29.2958 89.0905 28.9647 89.236C28.6336 89.3815 28.2744 89.4524 27.9127 89.4437Z" fill="url(#paint30_linear_3247_7009)"/>
<path style="mix-blend-mode:multiply" opacity="0.4" d="M135.993 82.7769H80.4277C79.5609 82.756 78.7 82.9248 77.9055 83.2715C77.1111 83.6182 76.4025 84.1343 75.8295 84.7836C75.2565 85.433 74.8331 86.1996 74.589 87.0298C74.3449 87.8599 74.2861 88.7333 74.4167 89.5886L81.8181 152.998L92.5051 141.39H143.533L135.993 82.7769Z" fill="url(#paint31_linear_3247_7009)"/>
<path opacity="0.5" d="M183.002 72.4663H104.914C101.623 72.4663 98.4669 73.7707 96.1397 76.0926C93.8125 78.4145 92.5051 81.5637 92.5051 84.8473V150.541L106.173 138.809H183.002C186.291 138.8 189.443 137.493 191.769 135.173C194.096 132.853 195.408 129.709 195.419 126.428V84.8473C195.408 81.5659 194.096 78.422 191.769 76.1023C189.443 73.7825 186.291 72.4754 183.002 72.4663Z" fill="url(#paint32_linear_3247_7009)"/>
<path d="M183.002 72.4663H104.914C101.623 72.4663 98.4669 73.7707 96.1397 76.0926C93.8125 78.4145 92.5051 81.5637 92.5051 84.8473V150.541L106.173 138.809H183.002C186.291 138.8 189.443 137.493 191.769 135.173C194.096 132.853 195.408 129.709 195.419 126.428V84.8473C195.408 81.5659 194.096 78.422 191.769 76.1023C189.443 73.7825 186.291 72.4754 183.002 72.4663Z" stroke="url(#paint33_linear_3247_7009)" stroke-width="2" stroke-miterlimit="10"/>
<path d="M173.595 79.3331H109.431C105.661 79.3331 102.604 82.3828 102.604 86.1448V123.543C102.604 127.305 105.661 130.355 109.431 130.355H173.595C177.365 130.355 180.422 127.305 180.422 123.543V86.1448C180.422 82.3828 177.365 79.3331 173.595 79.3331Z" fill="url(#paint34_linear_3247_7009)"/>
<path d="M177.814 79.3331H113.651C109.88 79.3331 106.824 82.3828 106.824 86.1448V123.543C106.824 127.305 109.88 130.355 113.651 130.355H177.814C181.585 130.355 184.642 127.305 184.642 123.543V86.1448C184.642 82.3828 181.585 79.3331 177.814 79.3331Z" fill="url(#paint35_linear_3247_7009)"/>
<path d="M145.726 100.079L108.788 128.816C109.875 129.804 111.294 130.351 112.765 130.348H178.693C180.164 130.351 181.583 129.804 182.67 128.816L145.726 100.079Z" fill="url(#paint36_linear_3247_7009)"/>
<path d="M145.726 109.596L182.67 80.8583C181.58 79.8745 180.163 79.3308 178.693 79.3331H112.765C111.296 79.3308 109.878 79.8745 108.788 80.8583L145.726 109.596Z" fill="url(#paint37_linear_3247_7009)"/>
<path d="M108.788 80.8583L145.733 109.596L182.67 80.8583" stroke="#CC5833" stroke-width="1.44" stroke-miterlimit="10"/>
<path d="M178.153 94.5506C186.577 94.5506 193.406 87.7375 193.406 79.3332C193.406 70.9288 186.577 64.1157 178.153 64.1157C169.73 64.1157 162.901 70.9288 162.901 79.3332C162.901 87.7375 169.73 94.5506 178.153 94.5506Z" fill="#D4003C"/>
<path d="M180.159 94.5506C188.583 94.5506 195.412 87.7375 195.412 79.3332C195.412 70.9288 188.583 64.1157 180.159 64.1157C171.736 64.1157 164.907 70.9288 164.907 79.3332C164.907 87.7375 171.736 94.5506 180.159 94.5506Z" fill="#FF335B"/>
<path d="M183.68 86.9039H180.74V74.3642L177.973 74.4332V72.1902L183.673 71.6105L183.68 86.9039Z" fill="#D4003C"/>
<path d="M182.317 86.904H179.405V74.4815L176.638 74.5505V72.3283L182.29 71.7555L182.317 86.904Z" fill="white"/>
<path d="M180.159 47.4489V56.6691" stroke="white" stroke-width="4" stroke-linecap="round" stroke-linejoin="round"/>
<path d="M202.758 56.7864L196.221 63.3082" stroke="white" stroke-width="4" stroke-linecap="round" stroke-linejoin="round"/>
<path d="M212.117 79.3331H202.875" stroke="white" stroke-width="4" stroke-linecap="round" stroke-linejoin="round"/>
<path d="M157.568 56.7864L164.098 63.3082" stroke="white" stroke-width="4" stroke-linecap="round" stroke-linejoin="round"/>
<path d="M7.16119 14.8331L14.7355 20.1195" stroke="white" stroke-width="4" stroke-linecap="round" stroke-linejoin="round"/>
<path d="M27.7812 1.71362L29.3929 10.7958" stroke="white" stroke-width="4" stroke-linecap="round" stroke-linejoin="round"/>
<path d="M51.6593 6.97937L46.3677 14.5364" stroke="white" stroke-width="4" stroke-linecap="round" stroke-linejoin="round"/>
<path d="M1.88342 38.6635L10.9864 37.0555" stroke="white" stroke-width="4" stroke-linecap="round" stroke-linejoin="round"/>
</g>
<defs>
<linearGradient id="paint0_linear_3247_7009" x1="116.362" y1="28.6358" x2="50.5234" y2="215.357" gradientUnits="userSpaceOnUse">
<stop stop-color="#007D73"/>
<stop offset="0.24" stop-color="#027875"/>
<stop offset="0.53" stop-color="#08687A"/>
<stop offset="0.85" stop-color="#114F81"/>
<stop offset="1" stop-color="#164186"/>
</linearGradient>
<linearGradient id="paint1_linear_3247_7009" x1="135.198" y1="52.1142" x2="135.198" y2="103.046" gradientUnits="userSpaceOnUse">
<stop stop-color="#007D73"/>
<stop offset="0.24" stop-color="#027875"/>
<stop offset="0.53" stop-color="#08687A"/>
<stop offset="0.85" stop-color="#114F81"/>
<stop offset="1" stop-color="#164186"/>
</linearGradient>
<linearGradient id="paint2_linear_3247_7009" x1="97.0428" y1="24.8814" x2="81.5014" y2="195.117" gradientUnits="userSpaceOnUse">
<stop stop-color="#4ADECE"/>
<stop offset="1" stop-color="#1697D7"/>
</linearGradient>
<linearGradient id="paint3_linear_3247_7009" x1="106.45" y1="10.6992" x2="70.1997" y2="224.634" gradientUnits="userSpaceOnUse">
<stop stop-color="#D3F7FF"/>
<stop offset="0.69" stop-color="#BCDDE6"/>
<stop offset="1" stop-color="#B0CFD9"/>
</linearGradient>
<linearGradient id="paint4_linear_3247_7009" x1="103.261" y1="29.5606" x2="41.5602" y2="29.5606" gradientUnits="userSpaceOnUse">
<stop stop-color="#007D73"/>
<stop offset="0.24" stop-color="#027875"/>
<stop offset="0.53" stop-color="#08687A"/>
<stop offset="0.85" stop-color="#114F81"/>
<stop offset="1" stop-color="#164186"/>
</linearGradient>
<linearGradient id="paint5_linear_3247_7009" x1="97.0428" y1="24.8814" x2="81.5014" y2="195.117" gradientUnits="userSpaceOnUse">
<stop stop-color="#4ADECE"/>
<stop offset="1" stop-color="#1697D7"/>
</linearGradient>
<linearGradient id="paint6_linear_3247_7009" x1="106.45" y1="10.6992" x2="70.1997" y2="224.634" gradientUnits="userSpaceOnUse">
<stop stop-color="#D3F7FF"/>
<stop offset="0.69" stop-color="#BCDDE6"/>
<stop offset="1" stop-color="#B0CFD9"/>
</linearGradient>
<linearGradient id="paint7_linear_3247_7009" x1="56.825" y1="74.8335" x2="230.826" y2="52.1616" gradientUnits="userSpaceOnUse">
<stop stop-color="#4ADECE"/>
<stop offset="1" stop-color="#1697D7"/>
</linearGradient>
<linearGradient id="paint8_linear_3247_7009" x1="53.7109" y1="46.952" x2="227.711" y2="24.2802" gradientUnits="userSpaceOnUse">
<stop stop-color="#4ADECE"/>
<stop offset="1" stop-color="#1697D7"/>
</linearGradient>
<linearGradient id="paint9_linear_3247_7009" x1="3.85133" y1="102.37" x2="114.875" y2="87.9038" gradientUnits="userSpaceOnUse">
<stop stop-color="#4ADECE"/>
<stop offset="1" stop-color="#1697D7"/>
</linearGradient>
<linearGradient id="paint10_linear_3247_7009" x1="64.0018" y1="129.913" x2="238.002" y2="107.241" gradientUnits="userSpaceOnUse">
<stop stop-color="#4ADECE"/>
<stop offset="1" stop-color="#1697D7"/>
</linearGradient>
<linearGradient id="paint11_linear_3247_7009" x1="11.0281" y1="157.45" x2="122.052" y2="142.983" gradientUnits="userSpaceOnUse">
<stop stop-color="#4ADECE"/>
<stop offset="1" stop-color="#1697D7"/>
</linearGradient>
<linearGradient id="paint12_linear_3247_7009" x1="134.695" y1="181.48" x2="62.307" y2="199.619" gradientUnits="userSpaceOnUse">
<stop stop-color="#4ADECE"/>
<stop offset="1" stop-color="#1697D7"/>
</linearGradient>
<linearGradient id="paint13_linear_3247_7009" x1="99.0419" y1="227.146" x2="129.675" y2="173" gradientUnits="userSpaceOnUse">
<stop stop-color="#4ADECE"/>
<stop offset="1" stop-color="#1697D7"/>
</linearGradient>
<linearGradient id="paint14_linear_3247_7009" x1="76.7409" y1="84.875" x2="76.7409" y2="-2.33742" gradientUnits="userSpaceOnUse">
<stop stop-color="#007D73"/>
<stop offset="0.24" stop-color="#027875"/>
<stop offset="0.53" stop-color="#08687A"/>
<stop offset="0.85" stop-color="#114F81"/>
<stop offset="1" stop-color="#164186"/>
</linearGradient>
<linearGradient id="paint15_linear_3247_7009" x1="103.261" y1="29.5606" x2="41.5602" y2="29.5606" gradientUnits="userSpaceOnUse">
<stop stop-color="#007D73"/>
<stop offset="0.24" stop-color="#027875"/>
<stop offset="0.53" stop-color="#08687A"/>
<stop offset="0.85" stop-color="#114F81"/>
<stop offset="1" stop-color="#164186"/>
</linearGradient>
<linearGradient id="paint16_linear_3247_7009" x1="126.724" y1="21.4929" x2="126.724" y2="193.254" gradientUnits="userSpaceOnUse">
<stop stop-color="#007D73"/>
<stop offset="0.24" stop-color="#027875"/>
<stop offset="0.53" stop-color="#08687A"/>
<stop offset="0.85" stop-color="#114F81"/>
<stop offset="1" stop-color="#164186"/>
</linearGradient>
<linearGradient id="paint17_linear_3247_7009" x1="187.83" y1="64.3504" x2="-20.3635" y2="169.171" gradientUnits="userSpaceOnUse">
<stop stop-color="#FFECAD"/>
<stop offset="0.1" stop-color="#EDE4AD" stop-opacity="0.93"/>
<stop offset="0.31" stop-color="#BCCFAC" stop-opacity="0.74"/>
<stop offset="0.61" stop-color="#6FACAB" stop-opacity="0.44"/>
<stop offset="0.98" stop-color="#067DAA" stop-opacity="0.02"/>
<stop offset="1" stop-color="#007BAA" stop-opacity="0"/>
</linearGradient>
<linearGradient id="paint18_linear_3247_7009" x1="76.5887" y1="23.0181" x2="61.0474" y2="193.253" gradientUnits="userSpaceOnUse">
<stop stop-color="#4ADECE"/>
<stop offset="1" stop-color="#1697D7"/>
</linearGradient>
<linearGradient id="paint19_linear_3247_7009" x1="103.261" y1="27.5178" x2="41.5602" y2="27.5178" gradientUnits="userSpaceOnUse">
<stop stop-color="#007D73"/>
<stop offset="0.24" stop-color="#027875"/>
<stop offset="0.53" stop-color="#08687A"/>
<stop offset="0.85" stop-color="#114F81"/>
<stop offset="1" stop-color="#164186"/>
</linearGradient>
<linearGradient id="paint20_linear_3247_7009" x1="103.245" y1="27.5222" x2="41.5439" y2="27.5221" gradientUnits="userSpaceOnUse">
<stop stop-color="#007D73"/>
<stop offset="0.24" stop-color="#027875"/>
<stop offset="0.53" stop-color="#08687A"/>
<stop offset="0.85" stop-color="#114F81"/>
<stop offset="1" stop-color="#164186"/>
</linearGradient>
<linearGradient id="paint21_linear_3247_7009" x1="126.724" y1="21.4929" x2="126.724" y2="193.254" gradientUnits="userSpaceOnUse">
<stop stop-color="#007D73"/>
<stop offset="0.24" stop-color="#027875"/>
<stop offset="0.53" stop-color="#08687A"/>
<stop offset="0.85" stop-color="#114F81"/>
<stop offset="1" stop-color="#164186"/>
</linearGradient>
<linearGradient id="paint22_linear_3247_7009" x1="187.83" y1="64.3504" x2="-20.3635" y2="169.171" gradientUnits="userSpaceOnUse">
<stop stop-color="#FFECAD"/>
<stop offset="0.1" stop-color="#EDE4AD" stop-opacity="0.93"/>
<stop offset="0.31" stop-color="#BCCFAC" stop-opacity="0.74"/>
<stop offset="0.61" stop-color="#6FACAB" stop-opacity="0.44"/>
<stop offset="0.98" stop-color="#067DAA" stop-opacity="0.02"/>
<stop offset="1" stop-color="#007BAA" stop-opacity="0"/>
</linearGradient>
<linearGradient id="paint23_linear_3247_7009" x1="165.592" y1="214.807" x2="26.4291" y2="31.0071" gradientUnits="userSpaceOnUse">
<stop stop-color="#CACDC2"/>
<stop offset="0.08" stop-color="#CDBCB3"/>
<stop offset="0.23" stop-color="#C59B9F"/>
<stop offset="0.39" stop-color="#BB6A81"/>
<stop offset="0.51" stop-color="#9E5574"/>
<stop offset="0.66" stop-color="#634A66"/>
<stop offset="0.86" stop-color="#253C4B"/>
<stop offset="1" stop-color="#052C35"/>
</linearGradient>
<linearGradient id="paint24_linear_3247_7009" x1="76.5887" y1="23.0181" x2="61.0474" y2="193.253" gradientUnits="userSpaceOnUse">
<stop stop-color="#4ADECE"/>
<stop offset="1" stop-color="#1697D7"/>
</linearGradient>
<linearGradient id="paint25_linear_3247_7009" x1="103.261" y1="27.5178" x2="41.5602" y2="27.5178" gradientUnits="userSpaceOnUse">
<stop stop-color="#007D73"/>
<stop offset="0.24" stop-color="#027875"/>
<stop offset="0.53" stop-color="#08687A"/>
<stop offset="0.85" stop-color="#114F81"/>
<stop offset="1" stop-color="#164186"/>
</linearGradient>
<linearGradient id="paint26_linear_3247_7009" x1="103.245" y1="27.5222" x2="41.5439" y2="27.5221" gradientUnits="userSpaceOnUse">
<stop stop-color="#007D73"/>
<stop offset="0.24" stop-color="#027875"/>
<stop offset="0.53" stop-color="#08687A"/>
<stop offset="0.85" stop-color="#114F81"/>
<stop offset="1" stop-color="#164186"/>
</linearGradient>
<linearGradient id="paint27_linear_3247_7009" x1="31.1776" y1="32.4384" x2="31.1776" y2="179.838" gradientUnits="userSpaceOnUse">
<stop stop-color="#4ADECE"/>
<stop offset="1" stop-color="#1697D7"/>
</linearGradient>
<linearGradient id="paint28_linear_3247_7009" x1="-48.6325" y1="106.725" x2="43.4901" y2="106.725" gradientUnits="userSpaceOnUse">
<stop stop-color="#007D73"/>
<stop offset="0.24" stop-color="#027875"/>
<stop offset="0.53" stop-color="#08687A"/>
<stop offset="0.85" stop-color="#114F81"/>
<stop offset="1" stop-color="#164186"/>
</linearGradient>
<linearGradient id="paint29_linear_3247_7009" x1="27.719" y1="32.4385" x2="27.719" y2="179.838" gradientUnits="userSpaceOnUse">
<stop stop-color="#4ADECE"/>
<stop offset="1" stop-color="#1697D7"/>
</linearGradient>
<linearGradient id="paint30_linear_3247_7009" x1="-48.6326" y1="79.837" x2="43.4901" y2="79.837" gradientUnits="userSpaceOnUse">
<stop stop-color="#007D73"/>
<stop offset="0.24" stop-color="#027875"/>
<stop offset="0.53" stop-color="#08687A"/>
<stop offset="0.85" stop-color="#114F81"/>
<stop offset="1" stop-color="#164186"/>
</linearGradient>
<linearGradient id="paint31_linear_3247_7009" x1="78.2281" y1="117.884" x2="155.202" y2="117.884" gradientUnits="userSpaceOnUse">
<stop stop-color="#CACDC2"/>
<stop offset="0.08" stop-color="#CDBCB3"/>
<stop offset="0.23" stop-color="#C59B9F"/>
<stop offset="0.39" stop-color="#BB6A81"/>
<stop offset="0.51" stop-color="#9E5574"/>
<stop offset="0.66" stop-color="#634A66"/>
<stop offset="0.86" stop-color="#253C4B"/>
<stop offset="1" stop-color="#052C35"/>
</linearGradient>
<linearGradient id="paint32_linear_3247_7009" x1="92.5051" y1="111.507" x2="195.419" y2="111.507" gradientUnits="userSpaceOnUse">
<stop stop-color="#E8E0E3"/>
<stop offset="0.81" stop-color="#C5EEFF"/>
</linearGradient>
<linearGradient id="paint33_linear_3247_7009" x1="99.692" y1="71.5691" x2="177.926" y2="149.982" gradientUnits="userSpaceOnUse">
<stop stop-color="#1697D7"/>
<stop offset="1" stop-color="#4ADECE"/>
</linearGradient>
<linearGradient id="paint34_linear_3247_7009" x1="145.829" y1="86.1793" x2="133.226" y2="140.933" gradientUnits="userSpaceOnUse">
<stop stop-color="#F88C57"/>
<stop offset="0.83" stop-color="#D65B2B"/>
<stop offset="1" stop-color="#CE5021"/>
</linearGradient>
<linearGradient id="paint35_linear_3247_7009" x1="145.587" y1="148.319" x2="145.773" y2="91.4243" gradientUnits="userSpaceOnUse">
<stop stop-color="#F6DE55"/>
<stop offset="0.32" stop-color="#F6D355"/>
<stop offset="0.87" stop-color="#F5B654"/>
<stop offset="1" stop-color="#F5AE54"/>
</linearGradient>
<linearGradient id="paint36_linear_3247_7009" x1="135.156" y1="183.516" x2="148.461" y2="114.374" gradientUnits="userSpaceOnUse">
<stop stop-color="#F6DE55"/>
<stop offset="0.32" stop-color="#F6D355"/>
<stop offset="0.87" stop-color="#F5B654"/>
<stop offset="1" stop-color="#F5AE54"/>
</linearGradient>
<linearGradient id="paint37_linear_3247_7009" x1="145.982" y1="73.5222" x2="144.15" y2="126.552" gradientUnits="userSpaceOnUse">
<stop stop-color="#F6DE55"/>
<stop offset="0.32" stop-color="#F6D355"/>
<stop offset="0.87" stop-color="#F5B654"/>
<stop offset="1" stop-color="#F5AE54"/>
</linearGradient>
<clipPath id="clip0_3247_7009">
<rect width="213" height="218" fill="white" transform="translate(0.5 0.333374)"/>
</clipPath>
</defs>
</svg>
